# xmcd CD database file
#
# Track frame offsets:
#	150
#	22387
#	41966
#	60256
#	77220
#	104703
#	120301
#	142267
#	164041
#	181970
#	205596
#	220550
#
# Disc length: 3190 seconds
#
# Revision: 0
# Processed by: cddbd v1.5.2PL0 Copyright (c) Steve Scherf et al.
# Submitted via: CDex 1.70beta2
#
DISCID=b20c740c
DTITLE=Kelly, Greg [CDN-cty-12) - Slow Horses
DYEAR=2012
DGENRE=Country
TTITLE0=I Realize
TTITLE1=Saddle Up
TTITLE2=A Rainy Day In My Heart
TTITLE3=Slow Horses
TTITLE4=Slow Moving Train
TTITLE5=I Can't Let Go
TTITLE6=Her Soft Disguise
TTITLE7=Long Time No See
TTITLE8=Unwired
TTITLE9=Bobbie
TTITLE10=Maybe If The Sun Shone Down
TTITLE11=Dance Across Forever
EXTD=YEAR: 2012
EXTT0=
EXTT1=
EXTT2=
EXTT3=
EXTT4=
EXTT5=
EXTT6=
EXTT7=
EXTT8=
EXTT9=
EXTT10=
EXTT11=
PLAYORDER=
